#format: frame checksums
#version: 2
#hash: MD5
#tb 0: 1/25
#media_type 0: video
#codec_id 0: hap
#dimensions 0: 352x288
#sar 0: 0/1
#stream#, dts,        pts, duration,     size, hash
0,          0,          0,        1,    47912, ac94f44194b154b15b7008ef38ae2343
0,          1,          1,        1,    48244, 21bff8df4137fdde2c836ea4c5aa10e0
0,          2,          2,        1,    49175, 4a6053f4f81259ad201d10ac83e47524
0,          3,          3,        1,    48159, 90df8d03d9d7bc99a22e439e4d79e9fc
0,          4,          4,        1,    47932, 8e719e872130057df3d3580f62693733
